# xmcd CD database file
#
# Track frame offsets:
#	150
#	13762
#	26112
#	37650
#	50462
#	66750
#	81937
#	94150
#	107675
#	124275
#	136687
#	149400
#	160050
#	172287
#	183737
#	193737
#
# Disc length: 2789 seconds
#
# Revision: 3
# Processed by: cddbd v1.5.2PL0 Copyright (c) Steve Scherf et al.
# Submitted via: CDex 1.70beta2
#
DISCID=e20ae310
DTITLE=Various Artist - Country Classics - Dics 2
DYEAR=1997
DGENRE=
TTITLE0=Lynn Anderson - Rose Garden
TTITLE1=Billie Jo Spears - Misty Blue
TTITLE2=Patsy Cline - Just Out Of Reach
TTITLE3=Wanda Jackson - Crazy
TTITLE4=Anne Murray - Both Sides Now
TTITLE5=Jennie C. Riley - Harper Valley P.T.A
TTITLE6=Skeeter Davis - End Of The World
TTITLE7=Dottie West - D.I.V.O.R.C.E
TTITLE8=Lynn Anderson - When I Dream
TTITLE9=Billie Jo Spears - You Never Can Tell
TTITLE10=Patsy Cline - A Poor Man's Roses
TTITLE11=Wanda Jackson - It's Only Make Belive
TTITLE12=Anne Murray - The Last Thing On My Mind
TTITLE13=Jennie C. Riley - Box Of Memories
TTITLE14=Barbara Mandrell - Release Me
TTITLE15=Melba Montgomery - No Charge
EXTD=YEAR: 1997
EXTT0=
EXTT1=
EXTT2=
EXTT3=
EXTT4=
EXTT5=
EXTT6=
EXTT7=
EXTT8=
EXTT9=
EXTT10=
EXTT11=
EXTT12=
EXTT13=
EXTT14=
EXTT15=
PLAYORDER=
